<?xml version="1.0" standalone="no"?>
<!DOCTYPE svg PUBLIC "-//W3C//DTD SVG 20010904//EN"
 "http://www.w3.org/TR/2001/REC-SVG-20010904/DTD/svg10.dtd">
<svg version="1.0" xmlns="http://www.w3.org/2000/svg"
 width="1094.000000pt" height="186.000000pt" viewBox="0 0 1094.000000 186.000000"
 preserveAspectRatio="xMidYMid meet">

<g transform="translate(0.000000,186.000000) scale(0.100000,-0.100000)"
fill="#000000" stroke="none">
<path d="M0 930 l0 -930 5470 0 5470 0 0 930 0 930 -5470 0 -5470 0 0 -930z
m809 728 c23 -57 45 -108 49 -115 4 -7 38 -14 77 -16 l70 -3 -71 -2 c-43 -1
-75 -7 -81 -14 -11 -14 -53 -191 -53 -220 0 -10 3 -18 8 -18 103 -6 135 -4
141 10 4 8 20 64 36 123 20 79 31 107 41 103 8 -3 14 -1 14 5 0 6 5 7 10 4 6
-3 93 -7 195 -7 102 0 185 -2 185 -4 0 -15 -104 -469 -115 -499 -7 -22 -24
-95 -36 -162 l-23 -123 -136 0 -136 0 -125 140 c-68 77 -128 139 -134 137 -5
-2 -39 -121 -74 -265 l-64 -262 -235 0 c-186 0 -232 3 -225 13 6 6 49 152 97
322 185 655 198 696 223 706 12 5 30 6 40 2 13 -5 15 -3 9 13 -38 92 -39 98
-24 133 l14 34 38 -90 38 -90 78 -1 c78 -1 79 -1 70 21 -4 12 -27 67 -49 121
-23 55 -41 101 -41 103 0 1 33 3 74 3 l74 0 41 -102z m855 -29 l33 -124 136 0
c75 0 139 -4 142 -7 6 -6 -18 -155 -31 -201 -5 -16 1 -18 72 -15 56 2 79 7 85
18 4 8 15 58 24 110 l16 95 214 0 c118 0 215 -3 215 -6 0 -3 -15 -100 -34
-215 -19 -115 -38 -234 -41 -264 -4 -30 -11 -75 -16 -100 -5 -25 -13 -72 -18
-105 -5 -33 -19 -124 -32 -202 l-23 -143 -228 0 c-125 0 -228 1 -228 3 0 7 61
322 74 385 9 40 16 91 16 113 l0 39 -74 0 c-63 0 -75 -3 -80 -17 -6 -23 -36
-173 -73 -370 l-28 -153 -238 0 c-222 0 -238 1 -233 18 12 38 86 354 106 452
12 58 32 146 45 195 13 50 26 104 29 120 2 17 16 77 31 135 14 58 37 155 51
215 27 117 41 161 50 152 3 -3 20 -61 38 -128z m8826 -99 c0 -6 -79 -9 -222
-8 l-223 2 220 6 c121 3 221 7 223 8 1 1 2 -2 2 -8z m-8382 -7 c-21 -2 -57 -2
-80 0 -24 2 -7 4 37 4 44 0 63 -2 43 -4z m1147 1 c-46 -7 -125 -8 -125 -1 0 4
33 6 73 6 39 -1 63 -3 52 -5z m2588 -1 c-78 -2 -208 -2 -290 0 -81 1 -17 3
142 3 160 0 226 -2 148 -3z m1135 0 c-81 -2 -216 -2 -300 0 -84 1 -18 3 147 3
165 0 234 -2 153 -3z m-4072 -25 c60 -1 115 2 121 5 7 4 14 3 17 -2 3 -5 25
-7 47 -4 41 6 41 6 36 -23 -3 -16 -8 -56 -12 -89 -3 -33 -8 -73 -11 -88 l-6
-28 68 3 68 3 18 110 c9 61 17 111 17 112 1 1 99 1 219 -1 l217 -2 -3 -75 c-1
-41 -5 -91 -8 -111 l-6 -38 -74 0 c-52 0 -74 -4 -75 -12 -7 -56 -5 -94 5 -100
6 -4 34 -8 63 -8 28 0 54 -4 57 -8 3 -5 -8 -150 -24 -323 -16 -173 -30 -322
-30 -331 0 -17 -18 -18 -231 -18 l-232 0 6 63 c4 34 9 73 11 87 12 60 36 241
42 313 l7 77 -76 0 c-60 0 -76 -3 -81 -17 -4 -9 -13 -75 -21 -147 -8 -72 -22
-182 -30 -245 -8 -63 -15 -118 -15 -123 0 -4 -106 -8 -235 -8 l-235 0 0 28 c0
15 4 43 9 62 6 19 12 51 15 70 3 19 15 87 26 150 11 63 33 198 50 300 32 192
68 398 74 415 2 6 25 9 52 8 27 -2 99 -3 160 -5z m1339 -9 l30 -3 -7 -75 c-13
-143 -18 -131 61 -131 l69 0 7 106 7 105 47 -2 c26 -1 52 1 58 4 7 4 14 3 18
-3 4 -6 11 -8 16 -4 6 3 49 5 97 4 48 -1 114 -2 148 -1 l60 1 -3 -83 c-1 -45
-6 -153 -9 -239 l-6 -158 -73 0 -73 0 -8 -132 -9 -133 -77 -3 -78 -3 -2 -107
c-1 -59 -2 -119 -1 -135 l1 -27 -240 0 c-223 0 -239 1 -234 18 2 9 8 70 12
134 l6 117 -73 3 c-72 3 -74 4 -73 28 1 14 5 73 9 133 l8 107 -76 0 -75 0 4
38 c3 20 13 125 23 234 11 108 21 200 24 205 5 7 339 9 412 2z m1137 -8 c15
-1 18 -15 20 -103 l3 -103 290 -3 291 -2 17 -318 c10 -174 20 -354 23 -399 l5
-83 -551 -2 -551 -3 5 55 c3 30 11 260 17 512 l12 456 201 -3 c111 -2 209 -4
218 -4z m971 -4 l172 -2 9 -95 c5 -52 14 -98 20 -102 6 -4 140 -8 298 -8 l288
0 5 -22 c2 -13 11 -104 20 -203 9 -99 22 -238 30 -310 7 -71 16 -160 20 -197
l7 -68 -546 0 -546 0 -2 138 c-1 75 -2 153 -3 172 -1 19 -4 145 -8 280 -4 135
-10 284 -13 332 l-6 87 33 3 c19 2 37 2 42 0 4 -2 85 -4 180 -5z m1951 -471
c42 -253 76 -478 76 -498 l0 -38 -230 0 -230 0 0 32 c0 17 -9 102 -20 187 -12
86 -32 239 -45 341 -14 102 -27 212 -30 245 -4 33 -10 87 -15 120 -6 33 -10
63 -10 66 0 4 96 7 214 7 l213 -1 77 -461z m624 451 c6 -5 12 -14 12 -21 0 -8
7 -46 16 -85 l16 -71 79 0 c89 0 85 -6 64 90 -8 36 -14 72 -15 80 0 13 29 15
207 14 193 -1 207 -2 215 -20 4 -10 42 -165 84 -344 42 -179 91 -389 110 -468
19 -79 34 -147 34 -153 0 -5 -94 -9 -233 -9 l-232 0 -23 126 c-12 70 -25 131
-28 135 -3 5 -36 9 -74 9 -64 0 -70 2 -75 23 -2 12 -16 73 -31 135 l-26 112
-73 0 c-73 0 -74 0 -77 -27 -2 -16 0 -41 4 -58 26 -104 87 -419 82 -426 -3 -5
0 -9 5 -9 6 0 11 -4 11 -10 0 -6 -84 -10 -233 -10 l-232 0 -79 473 c-43 259
-80 484 -83 498 l-5 26 284 -1 c155 -1 289 -5 296 -9z m1036 0 l89 -2 18 -55
c11 -30 23 -71 28 -90 5 -19 36 -134 69 -255 33 -121 65 -239 72 -262 l11 -43
227 0 227 0 36 -123 c20 -67 40 -130 44 -140 7 -16 -19 -17 -463 -17 l-470 0
-5 38 c-4 33 -211 908 -222 940 -4 10 18 12 100 11 58 -2 107 0 111 3 3 3 13
4 22 2 9 -3 57 -5 106 -7z m-2204 -594 c0 -16 11 -104 25 -198 14 -93 25 -176
25 -182 0 -10 -53 -13 -234 -13 l-233 0 -8 98 c-5 53 -10 115 -11 137 -1 22
-5 48 -9 58 -4 9 -5 29 -2 42 2 14 0 28 -4 31 -5 3 -9 16 -9 30 l0 24 230 0
230 0 0 -27z"/>
<path d="M5402 878 l3 -133 70 0 70 0 3 133 3 132 -76 0 -76 0 3 -132z"/>
<path d="M6563 913 c4 -54 7 -115 7 -135 l0 -38 85 0 85 0 0 38 c0 20 -3 81
-7 135 l-6 97 -85 0 -85 0 6 -97z"/>
</g>
</svg>
